<svg width="41" height="44" viewBox="0 0 41 44" fill="none" xmlns="http://www.w3.org/2000/svg">
<path fill-rule="evenodd" clip-rule="evenodd" d="M12.7502 12.8125H31.2501C31.6643 12.8125 32.0001 13.1483 32.0001 13.5625C32.0001 13.9767 31.6643 14.3125 31.2501 14.3125H12.7502C12.3359 14.3125 12.0001 13.9767 12.0001 13.5625C12.0001 13.1483 12.3359 12.8125 12.7502 12.8125ZM12.7501 21.1875H31.2501C31.6642 21.1875 32 21.5232 32 21.9376C32 22.3517 31.6642 22.6875 31.2501 22.6875H12.7501C12.3358 22.6875 12 22.3517 12 21.9376C12 21.5232 12.3358 21.1875 12.7501 21.1875ZM31.2501 29.6875H12.7501C12.3359 29.6875 12 30.0233 12 30.4375C12 30.8517 12.3359 31.1875 12.7501 31.1875H31.2501C31.6642 31.1875 32.0001 30.8517 32.0001 30.4375C32.0001 30.0233 31.6642 29.6875 31.2501 29.6875Z" fill="#131314"/>
</svg>
