<svg width="60" height="58" viewBox="0 0 60 58" fill="none" xmlns="http://www.w3.org/2000/svg">
<path d="M58.6979 26.2846C59.8789 25.1233 60.2958 23.4189 59.7864 21.8346C59.2758 20.2502 57.9458 19.1192 56.3119 18.8792L41.7842 16.7493C41.1655 16.6584 40.6308 16.2668 40.3545 15.7007L33.8596 2.4196C33.1303 0.92735 31.6502 0 30.0006 0C28.3522 0 26.8721 0.92735 26.1428 2.4196L19.6467 15.7019C19.3704 16.268 18.8345 16.6596 18.2158 16.7505L3.68813 18.8804C2.05539 19.1192 0.724212 20.2514 0.213605 21.8358C-0.2958 23.4201 0.121095 25.1245 1.3021 26.2858L11.8134 36.6237C12.2615 37.0649 12.467 37.7001 12.3612 38.3208L9.88149 52.9184C9.66163 54.2033 9.99563 55.4531 10.8198 56.4387C12.1005 57.9745 14.3364 58.4425 16.1241 57.4945L29.1163 50.6018C29.6594 50.3145 30.343 50.3169 30.8848 50.6018L43.8783 57.4945C44.5102 57.8303 45.1842 58 45.8799 58C47.1498 58 48.3536 57.4303 49.1814 56.4387C50.0068 55.4531 50.3396 54.2009 50.1197 52.9184L47.6388 38.3208C47.533 37.6989 47.7385 37.0649 48.1866 36.6237L58.6979 26.2846Z" fill="#F2C71C"/>
</svg>
